# xmcd CD database file
#
# Track frame offsets:
#	150
#	18983
#	46985
#	66889
#	108660
#	128609
#	147584
#	173550
#	204730
#	230314
#
# Disc length: 3285 seconds
#
# Revision: 0
# Processed by: cddbd v1.5.2PL0 Copyright (c) Steve Scherf et al.
# Submitted via: CDex 1.51
#
DISCID=890cd30a
DTITLE=Larry Garner - Double Dues
DYEAR=1991
DGENRE=Blues
TTITLE0=Scared Of You
TTITLE1=No Free Rides
TTITLE2=Buster
TTITLE3=Shut It Down
TTITLE4=Dreaming Again
TTITLE5=The Taxman
TTITLE6=Broke Bluesman
TTITLE7=Tale Spreaders
TTITLE8=California Sister
TTITLE9=Past 23
EXTD=YEAR: 1991
EXTT0=
EXTT1=
EXTT2=
EXTT3=
EXTT4=
EXTT5=
EXTT6=
EXTT7=
EXTT8=
EXTT9=
PLAYORDER=
